<?xml version="1.0" standalone="no"?><!DOCTYPE svg PUBLIC "-//W3C//DTD SVG 1.1//EN" "http://www.w3.org/Graphics/SVG/1.1/DTD/svg11.dtd"><svg t="1491496802845" class="icon" style="" viewBox="0 0 1024 1024" version="1.1" xmlns="http://www.w3.org/2000/svg" p-id="1943" xmlns:xlink="http://www.w3.org/1999/xlink" width="200" height="200"><defs><style type="text/css"></style></defs><path d="M511.625 1018.136C231.988 1018.136 4.5 790.626 4.5 511.011 4.5 231.374 231.988 3.864 511.625 3.864s507.125 227.509 507.125 507.146c0 66.637-12.709 131.388-37.788 192.433-4.109 9.955-15.505 14.742-25.46 10.654-9.955-4.109-14.742-15.505-10.633-25.481 23.088-56.321 34.822-116.074 34.822-177.606 0-258.117-209.95-468.088-468.067-468.088S43.558 252.894 43.558 511.011c0 258.095 209.95 468.067 468.067 468.067 76.465 0 152.252-18.809 219.228-54.394 2.711-1.567 80.743-45.921 153.396-51.428 11.226-0.996 20.122 7.286 20.927 17.983 0.847 10.76-7.202 20.143-17.962 20.948-63.968 4.851-136.747 46.26-137.51 46.663C676.586 997.738 594.444 1018.136 511.625 1018.136z" p-id="1944" fill="#1e88e5"></path><path d="M327.601 435.266c-30.417 0-55.156-24.74-55.156-55.135 0-30.395 24.74-55.114 55.156-55.114 30.374 0 55.114 24.719 55.114 55.114C382.715 410.526 357.975 435.266 327.601 435.266zM327.601 364.075c-8.896 0-16.098 7.202-16.098 16.055 0 8.875 7.202 16.077 16.098 16.077 8.854 0 16.055-7.202 16.055-16.077C343.656 371.277 336.455 364.075 327.601 364.075z" p-id="1945" fill="#1e88e5"></path><path d="M682.771 435.266c-30.374 0-55.114-24.74-55.114-55.135 0-30.395 24.74-55.114 55.114-55.114 30.417 0 55.156 24.719 55.156 55.114C737.927 410.526 713.187 435.266 682.771 435.266zM682.771 364.075c-8.854 0-16.056 7.202-16.056 16.055 0 8.875 7.202 16.077 16.056 16.077 8.896 0 16.098-7.202 16.098-16.077C698.869 371.277 691.667 364.075 682.771 364.075z" p-id="1946" fill="#1e88e5"></path><path d="M507.982 825.745c-96.206 0-186.693-42.49-248.246-116.54-6.905-8.282-5.761-20.588 2.499-27.493 8.261-6.905 20.588-5.761 27.493 2.542 54.14 65.112 133.697 102.433 218.253 102.433 88.835 0 170.849-40.414 225.074-110.927 6.524-8.557 18.767-10.125 27.366-3.58 8.557 6.587 10.125 18.83 3.558 27.388C702.342 779.739 609.059 825.745 507.982 825.745z" p-id="1947" fill="#1e88e5"></path><path d="M962.907 696.031m-50.904 0a50.904 50.904 0 1 0 101.808 0 50.904 50.904 0 1 0-101.808 0Z" p-id="1948" fill="#1e88e5"></path></svg>