<?xml version="1.0" standalone="no"?><!DOCTYPE svg PUBLIC "-//W3C//DTD SVG 1.1//EN" "http://www.w3.org/Graphics/SVG/1.1/DTD/svg11.dtd"><svg t="1491498615121" class="icon" style="" viewBox="0 0 1024 1024" version="1.1" xmlns="http://www.w3.org/2000/svg" p-id="11479" xmlns:xlink="http://www.w3.org/1999/xlink" width="200" height="200"><defs><style type="text/css"></style></defs><path d="M954.419 1008.046h-884.839c-29.617 0-53.627-24.010-53.627-53.627v-884.839c0-29.617 24.010-53.627 53.627-53.627h884.839c29.617 0 53.627 24.010 53.627 53.627v884.839c0 29.617-24.010 53.627-53.627 53.627zM865.453 499.437v-0.121h-176.725l-88.365 191.313-88.365-225.419v-395.63h-442.419v884.839h442.419v-330.448l88.042 223.194 126.465-281.539h134.065c19.548 0 40.22-12.214 40.22-31.423 0-19.184-15.82-34.736-35.341-34.763z" fill="#1AA0CF" p-id="11480"></path><path d="M512.016 624.684l-102.533-257.1-74.191 202.628h-175.748c-0.308 0.016-0.603 0.095-0.926 0.095-19.548 0-35.407-15.391-35.407-34.387 0-18.972 20.699-31.948 40.22-31.987h134.065l111.971-294.946 102.533 258.693v157.003z" fill="#9FC53E" p-id="11481"></path></svg>