<?xml version="1.0" standalone="no"?><!DOCTYPE svg PUBLIC "-//W3C//DTD SVG 1.1//EN" "http://www.w3.org/Graphics/SVG/1.1/DTD/svg11.dtd"><svg t="1491498695278" class="icon" style="" viewBox="0 0 1024 1024" version="1.1" xmlns="http://www.w3.org/2000/svg" p-id="14326" xmlns:xlink="http://www.w3.org/1999/xlink" width="200" height="200"><defs><style type="text/css"></style></defs><path d="M805.309 493.174c48.252-66.128 61.067-126.246 36.229-169.277s-83.373-62.016-164.69-53.315c-8.701 0.949-17.403 2.057-26.262 3.638-32.115-86.378-81.791-140.643-138.428-140.643s-106.313 54.263-138.586 140.643c-90.809-15.346-162.633 0.474-191.109 49.676-28.318 49.043-6.011 119.285 52.682 190.318-5.854 6.961-11.232 13.922-16.295 20.883-48.252 66.128-61.224 126.404-36.387 169.435 20.883 36.229 65.654 55.213 127.67 55.213 11.865 0 24.205-0.633 37.178-2.057 8.542-0.949 17.244-2.057 26.261-3.638 32.115 86.378 81.949 140.8 138.586 140.8s106.313-54.422 138.428-140.643c21.99 3.638 43.031 5.537 62.648 5.537 60.75 0 106.945-18.193 128.461-55.213 28.318-49.043 6.011-119.286-52.523-190.318 5.537-7.119 10.916-13.922 16.136-21.041zM671.786 311.873c64.23-6.961 110.901 6.17 128.145 36.070 17.244 29.742 5.221 76.887-32.906 128.935-3.638 4.904-7.435 9.967-11.391 14.872-22.781-24.364-49.834-48.568-80.684-71.666-4.588-38.286-12.023-73.881-21.674-105.838l18.51-2.373zM585.089 640.935c-24.205 14.080-48.727 26.578-73.089 37.336-24.205-10.916-48.885-23.256-73.248-37.336-24.363-14.080-47.461-29.109-68.977-44.614-2.848-26.42-4.271-53.789-4.271-82.107s1.424-55.688 4.271-82.266c21.516-15.662 44.613-30.533 68.977-44.613 24.205-13.922 48.727-26.578 73.090-37.494 24.363 10.916 48.885 23.414 73.406 37.494 24.363 14.080 47.461 29.109 68.818 44.613 2.847 26.42 4.271 53.948 4.271 82.107s-1.582 55.688-4.271 82.107c-21.674 15.82-44.771 30.692-68.977 44.771zM641.727 631.602c-4.588 27.369-10.442 53.156-17.719 76.729-24.047-5.537-49.359-13.289-75.305-22.94 15.82-7.752 31.641-16.295 47.303-25.313 15.82-9.175 31.008-18.668 45.721-28.477zM475.297 685.391c-25.628 9.809-51.099 17.56-75.463 22.94-7.277-23.573-13.289-49.359-17.719-76.729 14.555 9.809 29.742 19.301 45.563 28.318 15.979 9.334 31.957 17.719 47.619 25.471zM345.412 567.846c-21.516-17.56-40.816-35.754-57.586-53.789 16.928-18.352 36.229-36.387 57.586-53.789-1.266 17.56-1.74 35.437-1.74 53.789 0 18.352 0.633 36.387 1.74 53.789zM382.273 396.828c4.588-27.369 10.442-53.156 17.719-76.729 24.047 5.537 49.359 13.289 75.305 22.94-15.82 7.752-31.641 16.295-47.303 25.313-15.82 9.175-31.008 18.668-45.721 28.477zM548.703 343.039c25.628-9.808 51.099-17.56 75.463-22.94 7.277 23.573 13.289 49.359 17.719 76.729-14.555-9.809-29.742-19.301-45.563-28.318-15.979-9.334-31.957-17.719-47.619-25.471zM678.588 460.584c21.516 17.56 40.816 35.754 57.586 53.789-16.928 18.352-36.229 36.387-57.586 53.789 1.266-17.56 1.74-35.438 1.74-53.789 0-18.352-0.633-36.386-1.74-53.789zM512 181.83c40.026 0 76.887 43.031 102.516 110.268-33.065 7.594-67.553 19.143-102.516 34.013-35.438-15.188-69.926-26.578-102.516-34.172 25.628-67.078 62.49-110.109 102.516-110.109zM224.229 347.943c14.872-25.628 49.201-37.969 95.080-37.969 15.979 0 33.223 1.582 51.732 4.43-9.651 31.957-17.086 67.552-21.674 105.838-30.217 22.781-57.427 46.828-80.683 71.666-45.721-55.846-64.547-109.161-44.455-143.965zM352.214 716.557c-64.23 6.803-110.901-6.17-128.145-36.070-17.244-29.742-5.221-76.887 32.906-128.935 3.638-4.904 7.435-9.967 11.391-14.872 22.781 24.363 49.834 48.568 80.684 71.666 4.588 38.286 12.023 73.881 21.674 105.68-6.17 0.95-12.339 1.74-18.51 2.531zM512 846.599c-40.026 0-76.887-43.031-102.516-110.268 33.065-7.594 67.553-19.143 102.516-34.013 35.438 15.029 69.926 26.578 102.516 34.172-25.628 67.078-62.49 110.109-102.516 110.109zM799.771 680.487c-19.933 34.646-75.622 45.088-146.654 33.539 9.651-31.957 17.086-67.553 21.674-105.838 30.217-22.781 57.428-46.828 80.683-71.666 45.563 55.846 64.388 109.161 44.297 143.965z" fill="#0095E2" p-id="14327"></path><path d="M512 440.176c-40.816 0-74.039 33.222-74.039 74.039s33.223 74.039 74.039 74.039 74.039-33.223 74.039-74.039-33.223-74.039-74.039-74.039zM512 558.987c-24.838 0-44.771-20.25-44.771-44.771 0-24.68 20.25-44.771 44.771-44.771 24.838 0 44.771 20.25 44.771 44.771 0 24.68-19.933 44.771-44.771 44.771z" fill="#F4BB19" p-id="14328"></path></svg>