<?xml version="1.0" encoding="utf-8"?>
<!-- Generator: Adobe Illustrator 18.0.0, SVG Export Plug-In . SVG Version: 6.00 Build 0)  -->
<!DOCTYPE svg PUBLIC "-//W3C//DTD SVG 1.1//EN" "http://www.w3.org/Graphics/SVG/1.1/DTD/svg11.dtd">
<svg version="1.1" id="Layer_1" xmlns="http://www.w3.org/2000/svg" xmlns:xlink="http://www.w3.org/1999/xlink" x="0px" y="0px"
	 viewBox="47.1 0.2 105.7 79.8" enable-background="new 47.1 0.2 105.7 79.8" xml:space="preserve">
<g id="bird">
	<path fill="#FCA426" d="M83.9,75.5c-0.2,0.2-1.9,0.2-3.9,1.9s-1,2.6-2.3,2.3c-1.2-0.4-1.4-1.7-0.9-2.7L76.9,77
		c-1.9,1.7-1,2.6-2.3,2.3c-1-0.3-1.3-1.3-1.1-2.2c-1.3,1.4-0.6,2.1-1.7,1.8c-1.7-0.5-1.3-2.7-0.1-3.8c1.1-1,3.2-1.6,4.7-1.7l0,0l0,0
		l0,0c1.7,0.9,4.5,1.4,7.5,1.4s5.9-0.6,7.5-1.4c0.5,0,1,0.1,1.6,0.2l2.2,0.8c0.3,0.2,0.6,0.4,0.9,0.6c1.2,1.1,1.6,3.3-0.1,3.8
		c-1.1,0.3-0.5-0.3-1.7-1.8c0.2,0.9-0.1,1.9-1.1,2.2C92.1,79.7,93,78.8,91,77L90.9,77c0.5,1.1,0.3,2.3-0.9,2.7
		c-1.2,0.4-0.3-0.5-2.3-2.3C85.9,75.7,84.2,75.7,83.9,75.5z"/>
	<path fill="#E6951F" d="M96.2,75c-0.3-0.2-0.6-0.5-0.9-0.6l-2.2-0.8c-0.6-0.1-1.1-0.2-1.6-0.2c-1.7,0.9-4.5,1.4-7.5,1.4l0,0v0.7
		l0,0c0.2,0.2,1.9,0.2,3.9,1.9s1,2.6,2.3,2.3c1.2-0.4,1.4-1.7,0.9-2.7L91,77c1.9,1.7,1,2.6,2.3,2.3c1-0.3,1.3-1.3,1.1-2.2
		c1.3,1.4,0.6,2.1,1.7,1.8C97.8,78.3,97.4,76.1,96.2,75z"/>
	<path fill="#3594E8" d="M112.7,40.5c0-3.9-0.5-7.7-1.5-11.3c0.1,0.1,0.1,0.2,0.1,0.3c-1.5-5.7-4.3-10.7-7.8-14.7
		c-0.2-0.3-0.8-1.4-0.7-2.9c0-2.7,0.3-5.8,0.3-5.8s-2.7,5.1-6.1,3.8c-2.3-0.9-0.2-4.4-0.2-4.4s-1.4,0.8-3.1,1.7
		c-1.8,0.9-3.8,1.8-5.1,1.4c-2.6-0.9,1.4-8.4,1.4-8.4s-8.8,7.6-10.6,7.7c-2.3,0.1-2.1-3.4-2.1-3.4s-2.6,2.7-3.9,3.4
		c-7.9,3.8-14.1,11.7-16.7,21.6c-1.3,1.4-1.3,1.4-0.1,0.1c-0.9,3.4-1.4,7.1-1.4,10.9c0,8.5,2.5,16.3,6.7,22.4v-0.1
		c5.3,7.7,13.2,12.6,22.1,12.6s16.9-4.9,22.1-12.6l0,0C110.2,56.8,112.7,49,112.7,40.5z"/>
	<path fill="#1E88E6" d="M112.7,40.5c0-3.9-0.5-7.7-1.5-11.3c0.1,0.1,0.1,0.2,0.1,0.3c-1.5-5.7-4.3-10.7-7.8-14.7
		c-0.2-0.3-0.8-1.4-0.7-2.9c0-2.7,0.3-5.8,0.3-5.8s-2.7,5.1-6.1,3.8c-2.3-0.9-0.2-4.4-0.2-4.4s-1.4,0.8-3.1,1.7
		c-1.8,0.9-3.8,1.8-5.1,1.4c-2.6-0.9,1.4-8.4,1.4-8.4s0,0-0.1,0.1l0,0l-0.1,0.1c0,0,0,0-0.1,0.1c-0.1,0-0.1,0.1-0.1,0.1
		c-0.1,0-0.1,0.1-0.1,0.1c-0.1,0-0.1,0.1-0.1,0.1c-0.1,0.1-0.1,0.1-0.1,0.1c-0.1,0.1-0.1,0.1-0.1,0.1c-0.1-0.1-0.1,0-0.1,0.1
		S88.9,1,88.9,1.1c-0.1,0.1-0.1,0.1-0.2,0.2c-0.1,0.1-0.1,0.1-0.2,0.1c-0.1,0.1-0.1,0.1-0.2,0.2c-0.1,0.1-0.1,0.1-0.2,0.1
		c-0.1,0.1-0.2,0.1-0.2,0.2C87.8,2,87.7,2,87.7,2.1c-0.1,0.1-0.2,0.2-0.3,0.2c-0.1,0-0.1,0.1-0.1,0.1c-0.6,0.5-1.3,1.1-2,1.7l0,0
		c-0.4,0.3-0.9,0.7-1.3,1v70.4c0.3,0,0.6,0,0.9-0.1c0.2,0,0.5,0,0.7,0c0.3,0,0.6-0.1,1-0.1c0.2,0,0.5-0.1,0.6-0.1
		c0.3-0.1,0.7-0.1,1.1-0.2c0.2-0.1,0.3-0.1,0.5-0.1c0.4-0.1,0.7-0.2,1.1-0.3c0.2-0.1,0.3-0.1,0.5-0.1c0.4-0.1,0.8-0.2,1.2-0.4
		c0.1-0.1,0.2-0.1,0.3-0.1c0.5-0.2,0.9-0.3,1.3-0.5c0.1,0,0.1-0.1,0.2-0.1c5-2.1,9.3-5.8,12.6-10.7l0,0
		C110.2,56.8,112.7,49,112.7,40.5z"/>
	<path fill="#FFFFFF" d="M77.7,40.6c-0.1-2-0.2-4.3-0.4-7.2c-0.4-5.3-1.3-11.1-6.2-11.1c-5.5,0-10.8,6.5-10.8,14.3
		c0,4.4,1.5,8.3,3.9,11C68.3,44.1,72.9,41.7,77.7,40.6z"/>
	<path fill="#FFFFFF" d="M90.2,40.6c0.1-2,0.2-4.3,0.4-7.2c0.4-5.3,1.3-11.1,6.2-11.1c5.5,0,10.8,6.5,10.8,14.3
		c0,4.4-1.5,8.3-3.9,11C99.6,44.1,95,41.7,90.2,40.6z"/>
	<path fill="#2B2A29" d="M103.9,37.7c0-5.7-3.5-10.4-7.8-10.4c-2,0-3.8,1-5.2,2.7c-0.2,1.1-0.3,2.3-0.3,3.4
		c-0.2,2.9-0.3,5.2-0.4,7.2c3.9,0.9,7.5,2.6,11,5C102.9,43.7,103.9,40.8,103.9,37.7z"/>
	<path fill="#2B2A29" d="M64.1,37.7c0,3.1,1,5.9,2.7,7.9c3.4-2.4,7.1-4.1,11-5c-0.1-2-0.2-4.3-0.4-7.2c-0.1-1.1-0.2-2.3-0.3-3.4
		c-1.4-1.7-3.2-2.6-5.1-2.6C67.5,27.3,64.1,31.9,64.1,37.7z"/>
	<g>
		<path fill="#2B2A29" d="M77.7,40.5c0,0-2.6,0.6-6.1,2.2c-3.5,1.7-5,2.7-5,2.7s-4.2-5.3-1.9-11.9s7.7-6.4,8.9-5.9
			c1.2,0.5,3.4,1.5,3.5,2.8S77.7,40.5,77.7,40.5z"/>
		<path fill="#2B2A29" d="M90.2,40.5c0,0,2.6,0.6,6.1,2.2c3.5,1.7,5,2.7,5,2.7s4.2-5.3,1.9-11.9c-2.3-6.6-7.6-6.4-8.8-5.9
			c-1.2,0.5-3.4,1.5-3.5,2.8C90.7,31.5,90.2,40.5,90.2,40.5z"/>
	</g>
	<g>
		<ellipse fill="#FFFFFF" cx="97.5" cy="32.4" rx="2.4" ry="2.5"/>
		<ellipse fill="#FFFFFF" cx="73.3" cy="32.4" rx="2.4" ry="2.5"/>
	</g>
	<polygon fill="#E5E5E5" points="89.9,52.1 89.9,50.6 92.1,50.6 84,42.3 75.8,50.6 78.4,50.6 78.4,50.6 78.4,52.1 80,50.6 
		84.2,52.6 88.4,50.6 	"/>
	<path fill="#FCA426" d="M87,40.6c-1.2-1.4-3-1.4-3-1.4l0,0c0,0-1.8,0-3,1.4c-1.7,1-3.1,2.6-1.2,4.5c0.1,0.1,0.2,0.2,0.2,0.2
		c0.5,3.5,2.6,6.7,3.9,8.6l0,0c1.4-1.9,3.5-5.2,3.9-8.6c0.1-0.1,0.1-0.2,0.2-0.2C90.1,43.3,88.6,41.7,87,40.6z"/>
	<path fill="#E6951F" d="M87,40.6c-1.2-1.4-3-1.4-3-1.4l0,0V54l0,0c1.4-1.9,3.5-5.2,3.9-8.6c0.1-0.1,0.1-0.2,0.2-0.2
		C90.1,43.3,88.6,41.7,87,40.6z"/>
	<g>
		<ellipse fill="#2B2A29" cx="82.1" cy="43.5" rx="0.6" ry="1.3"/>
		<ellipse fill="#2B2A29" cx="85.7" cy="43.4" rx="0.6" ry="1.3"/>
	</g>
	<path fill="#E5E5E5" d="M96.9,17c-0.2-0.1-0.4-0.1-0.6-0.1v-0.1c-0.8-0.2-1.3-1.1-1-1.9c0.2-0.8,1.1-1.3,1.9-1
		c2.6,0.7,4.2,3.4,3.7,6.1C99.9,18.6,98.6,17.5,96.9,17z"/>
	<path fill="#E5E5E5" d="M67.3,20c-0.6-2.6,1-5.3,3.7-6.1c0.8-0.2,1.7,0.2,1.9,1c0.2,0.8-0.2,1.7-1,1.9v0.1C71.6,17,71.4,17,71.2,17
		C69.4,17.5,68.1,18.6,67.3,20z"/>
</g>
<g id="outfit">
	<path fill="#D5D2D2" d="M84,55.7c-11,0-21-4.2-28.6-11C57.1,62.1,69.3,75.5,84,75.5c14.7,0,26.8-13.4,28.6-30.7
		C105,51.6,95,55.7,84,55.7z"/>
	<path fill="#39444D" d="M94.9,54.3c-3.5,0.9-7.1,1.4-10.9,1.4c-3.7,0-7.3-0.5-10.7-1.4l9.7,9.7l-2.4,5.5l3.4,4.7l3.4-4.7L85,64.2
		L94.9,54.3z"/>
	<path fill="#2C353A" d="M94.9,54.3c-3.5,0.9-7.1,1.4-10.9,1.4l0,0v18.5l3.4-4.7l-2.3-5.4L94.9,54.3z"/>
	<path fill="#FFFFFF" d="M69.2,70.6L84,55.8l14.7,14.7c7.4-5.4,12.6-14.8,13.8-25.7C105,51.6,95,55.7,84,55.7s-21-4.2-28.6-11
		C56.5,55.7,61.8,65.1,69.2,70.6z"/>
	<path fill="#E5E5E5" d="M84,55.7L84,55.7L84,55.7l14.7,14.7c7.4-5.4,12.6-14.8,13.8-25.7C105,51.6,95,55.7,84,55.7z"/>
	<path fill="#E5E5E5" d="M55.3,43.9C56.7,61.7,69,75.5,83.9,75.5s27.2-13.8,28.6-31.5c-12,6.6-21.9,16.5-28.6,28.5
		C77.4,60.5,67.4,50.6,55.3,43.9z"/>
	<path fill="#D1D1D1" d="M84,72.5L84,72.5v3c14.9,0,27.1-13.8,28.6-31.5C100.6,50.6,90.6,60.5,84,72.5z"/>
	<g>
		<path fill="#E5E5E5" d="M117.4,50.5c0.4-1.7,0.6-3.3,0.6-5c0-5.9-2.5-11.5-6.7-15.9c-0.1-0.1-0.1-0.2-0.1-0.3
			c1,3.5,1.5,7.3,1.5,11.3c0,8.5-2.5,16.3-6.6,22.3l0.9,2.3l0,0c7.4-4.3,12.7-11.9,13.9-20.7C119.9,46.6,118.8,48.6,117.4,50.5z"/>
		<path fill="#E5E5E5" d="M55.2,40.5c0-3.8,0.5-7.5,1.4-10.9C52.5,34,50,39.5,50,45.4c0,1.7,0.2,3.3,0.6,4.9
			c-1.4-1.8-2.5-3.8-3.4-5.9c1.2,8.8,6.4,16.3,13.8,20.6c0.1,0.1,0.1,0.1,0.1,0.1l0.8-2.3C57.7,56.8,55.2,49,55.2,40.5z"/>
	</g>
	<path fill="#D0D5D9" d="M112.8,41.6c-0.1-0.6-0.2-1.9-0.2-2c0,0.3,0,0.6,0,0.9c0,8.5-2.4,16.2-6.6,22.3l0.9,2.3
		C111.1,58.8,113.4,50.5,112.8,41.6z"/>
	<path fill="#D0D5D9" d="M55,41.6c0.1-0.6,0.2-1.9,0.2-2c0,0.3,0,0.6,0,0.9c0,8.5,2.5,16.3,6.7,22.3L61,65.2
		C56.8,58.8,54.5,50.5,55,41.6z"/>
</g>
<g id="Google">
	<rect x="61.8" y="36.4" opacity="0.2" fill="#FFFFFF" enable-background="new    " width="18.7" height="9"/>
	<rect x="87.1" y="36.4" opacity="0.2" fill="#FFFFFF" enable-background="new    " width="18.7" height="9"/>
	<rect x="81.5" y="38.3" fill="#C4C8CC" width="5" height="1.6"/>
	<path fill="#C4C8CC" d="M81.1,34.9H62.6c-0.6,0-1,0.5-1,1v9.3c0,0.6,0.5,1,1,1H81c0.6,0,1-0.5,1-1v-9.3
		C82.1,35.3,81.7,34.9,81.1,34.9z M80.4,44.6H63.3v-8h17.1V44.6z"/>
	<path fill="#C4C8CC" d="M105.1,34.9H86.6c-0.6,0-1,0.5-1,1v9.3c0,0.6,0.5,1,1,1H105c0.6,0,1-0.5,1-1v-9.3
		C106.1,35.3,105.7,34.9,105.1,34.9z M104.4,44.6H87.3v-8h17.1V44.6z"/>
</g>
<g id="Calculator">
	<path fill="#39444D" d="M103.5,16h47.2c1.2,0,2.1,0.9,2.1,2.1v59.7c0,1.2-1,2.2-2.2,2.2h-47.2c-1.2,0-2.1-0.9-2.1-2.1V18.1
		C101.4,16.9,102.3,16,103.5,16z"/>
	<path fill="#22292E" d="M136.9,73.7c0,0.6-0.6,1.1-1.1,1.1h-6.3c-0.6,0-1.1-0.5-1.1-1.1v-6.3c0-0.6,0.6-1.1,1.1-1.1h6.3
		c0.6,0,1.1,0.6,1.1,1.1V73.7z"/>
	<path fill="#22292E" d="M126,73.7c0,0.6-0.6,1.1-1.1,1.1h-6.3c-0.6,0-1.1-0.5-1.1-1.1v-6.3c0-0.6,0.6-1.1,1.1-1.1h6.3
		c0.6,0,1.1,0.6,1.1,1.1V73.7z"/>
	<path fill="#22292E" d="M115.1,73.7c0,0.6-0.6,1.1-1.1,1.1h-6.3c-0.6,0-1.1-0.5-1.1-1.1v-6.3c0-0.6,0.6-1.1,1.1-1.1h6.3
		c0.6,0,1.1,0.6,1.1,1.1V73.7z"/>
	<path fill="#22292E" d="M136.9,62.9c0,0.6-0.6,1.1-1.1,1.1h-6.3c-0.6,0-1.1-0.5-1.1-1.1v-6.3c0-0.6,0.6-1.1,1.1-1.1h6.3
		c0.6,0,1.1,0.6,1.1,1.1V62.9z"/>
	<path fill="#22292E" d="M126,62.9c0,0.6-0.6,1.1-1.1,1.1h-6.3c-0.6,0-1.1-0.5-1.1-1.1v-6.3c0-0.6,0.6-1.1,1.1-1.1h6.3
		c0.6,0,1.1,0.6,1.1,1.1V62.9z"/>
	<path fill="#22292E" d="M115.1,62.9c0,0.6-0.6,1.1-1.1,1.1h-6.3c-0.6,0-1.1-0.5-1.1-1.1v-6.3c0-0.6,0.6-1.1,1.1-1.1h6.3
		c0.6,0,1.1,0.6,1.1,1.1V62.9z"/>
	<path fill="#22292E" d="M136.9,52c0,0.6-0.6,1.1-1.1,1.1h-6.3c-0.6,0-1.1-0.5-1.1-1.1v-6.3c0-0.6,0.6-1.1,1.1-1.1h6.3
		c0.6,0,1.1,0.6,1.1,1.1V52z"/>
	<path fill="#22292E" d="M126,52c0,0.6-0.6,1.1-1.1,1.1h-6.3c-0.6,0-1.1-0.5-1.1-1.1v-6.3c0-0.6,0.6-1.1,1.1-1.1h6.3
		c0.6,0,1.1,0.6,1.1,1.1V52z"/>
	<path fill="#22292E" d="M115.1,52c0,0.6-0.6,1.1-1.1,1.1h-6.3c-0.6,0-1.1-0.5-1.1-1.1v-6.3c0-0.6,0.6-1.1,1.1-1.1h6.3
		c0.6,0,1.1,0.6,1.1,1.1V52z"/>
	<path fill="#22292E" d="M136.9,41.1c0,0.6-0.6,1.1-1.1,1.1h-6.3c-0.6,0-1.1-0.5-1.1-1.1v-6.3c0-0.6,0.6-1.1,1.1-1.1h6.3
		c0.6,0,1.1,0.6,1.1,1.1V41.1z"/>
	<path fill="#22292E" d="M126,41.1c0,0.6-0.6,1.1-1.1,1.1h-6.3c-0.6,0-1.1-0.5-1.1-1.1v-6.3c0-0.6,0.6-1.1,1.1-1.1h6.3
		c0.6,0,1.1,0.6,1.1,1.1V41.1z"/>
	<path fill="#22292E" d="M115.1,41.1c0,0.6-0.6,1.1-1.1,1.1h-6.3c-0.6,0-1.1-0.5-1.1-1.1v-6.3c0-0.6,0.6-1.1,1.1-1.1h6.3
		c0.6,0,1.1,0.6,1.1,1.1V41.1z"/>
	<path fill="#22292E" d="M147.7,41.1c0,0.6-0.6,1.1-1.1,1.1h-6.3c-0.6,0-1.1-0.5-1.1-1.1v-6.3c0-0.6,0.6-1.1,1.1-1.1h6.3
		c0.6,0,1.1,0.6,1.1,1.1V41.1z"/>
	<path fill="#22292E" d="M147.7,52c0,0.6-0.6,1.1-1.1,1.1h-6.3c-0.6,0-1.1-0.5-1.1-1.1v-6.3c0-0.6,0.6-1.1,1.1-1.1h6.3
		c0.6,0,1.1,0.6,1.1,1.1V52z"/>
	<path fill="#3FB6A1" d="M147.7,73.7c0,0.6-0.6,1.1-1.1,1.1h-6.3c-0.6,0-1.1-0.6-1.1-1.1V57.1c0-0.6,0.6-1.1,1.1-1.1h6.3
		c0.6,0,1.1,0.6,1.1,1.1V73.7z"/>
	<path fill="#B3C2AF" d="M147.7,29.1c0,0.6-0.6,1.1-1.1,1.1h-38.9c-0.6,0-1.1-0.6-1.1-1.1v-6.9c0-0.6,0.6-1.1,1.1-1.1h38.9
		c0.6,0,1.1,0.6,1.1,1.1V29.1z"/>
	<circle fill="#6C756A" cx="110" cy="25.7" r="1.1"/>
	<circle fill="#6C756A" cx="113.4" cy="25.7" r="1.1"/>
	<circle fill="#6C756A" cx="116.9" cy="25.7" r="1.1"/>
	<circle fill="#6C756A" cx="120.3" cy="25.7" r="1.1"/>
	<path opacity="0.1" enable-background="new    " d="M150.7,16h-23.6v64h23.5c1.2,0,2.1-0.9,2.1-2.1V18.1
		C152.9,16.9,151.9,16,150.7,16z"/>
</g>
<circle fill="#39444D" cx="77.6" cy="68.7" r="1.3"/>
<circle fill="#2C353A" cx="91.8" cy="68.7" r="1.3"/>
</svg>
