<?xml version="1.0" encoding="utf-8"?>
<!-- Generator: Adobe Illustrator 18.0.0, SVG Export Plug-In . SVG Version: 6.00 Build 0)  -->
<!DOCTYPE svg PUBLIC "-//W3C//DTD SVG 1.1//EN" "http://www.w3.org/Graphics/SVG/1.1/DTD/svg11.dtd">
<svg version="1.1" id="Layer_1" xmlns="http://www.w3.org/2000/svg" xmlns:xlink="http://www.w3.org/1999/xlink" x="0px" y="0px"
	 viewBox="0 0 200 80" enable-background="new 0 0 200 80" xml:space="preserve">
<g id="bird">
	<path fill="#FCA426" d="M83.9,75.2c-0.2,0.2-1.9,0.2-3.9,1.9s-1,2.6-2.3,2.3c-1.2-0.4-1.4-1.7-0.9-2.7l-0.1,0.1
		c-1.9,1.7-1,2.6-2.3,2.3c-1-0.3-1.3-1.3-1.1-2.2c-1.3,1.4-0.6,2.1-1.7,1.8c-1.7-0.5-1.3-2.7-0.1-3.8c1.1-1,3.2-1.6,4.7-1.7l0,0l0,0
		l0,0c1.7,0.9,4.5,1.4,7.5,1.4s5.9-0.6,7.5-1.4c0.5,0,1,0.1,1.6,0.2l2.2,0.8c0.3,0.2,0.6,0.4,0.9,0.6c1.2,1.1,1.6,3.3-0.1,3.8
		c-1.1,0.3-0.5-0.3-1.7-1.8c0.2,0.9-0.1,1.9-1.1,2.2c-1.2,0.4-0.3-0.5-2.3-2.3l-0.1-0.1c0.5,1.1,0.3,2.3-0.9,2.7
		c-1.2,0.4-0.3-0.5-2.3-2.3C85.9,75.4,84.2,75.4,83.9,75.2z"/>
	<path fill="#E6951F" d="M96.2,74.7c-0.3-0.2-0.6-0.5-0.9-0.6l-2.2-0.8c-0.6-0.1-1.1-0.2-1.6-0.2c-1.7,0.9-4.5,1.4-7.5,1.4l0,0v0.7
		l0,0c0.2,0.2,1.9,0.2,3.9,1.9s1,2.6,2.3,2.3c1.2-0.4,1.4-1.7,0.9-2.7l0.1,0.1c1.9,1.7,1,2.6,2.3,2.3c1-0.3,1.3-1.3,1.1-2.2
		c1.3,1.4,0.6,2.1,1.7,1.8C97.8,78,97.4,75.8,96.2,74.7z"/>
	<path fill="#3594E8" d="M112.7,40.2c0-3.9-0.5-7.7-1.5-11.3c0.1,0.1,0.1,0.2,0.1,0.3c-1.5-5.7-4.3-10.7-7.8-14.7
		c-0.2-0.3-0.8-1.4-0.7-2.9c0-2.7,0.3-5.8,0.3-5.8s-2.7,5.1-6.1,3.8c-2.3-0.9-0.2-4.4-0.2-4.4S95.3,6.1,93.7,7
		c-1.8,0.9-3.8,1.8-5.1,1.4c-2.6-0.9,1.4-8.4,1.4-8.4s-8.8,7.6-10.6,7.7c-2.3,0.1-2.1-3.4-2.1-3.4S74.7,7,73.4,7.7
		c-7.9,3.8-14.1,11.7-16.7,21.6c-1.3,1.4-1.3,1.4-0.1,0.1c-0.9,3.4-1.4,7.1-1.4,10.9c0,8.5,2.5,16.3,6.7,22.4v-0.1
		c5.3,7.7,13.2,12.6,22.1,12.6s16.9-4.9,22.1-12.6l0,0C110.2,56.5,112.7,48.7,112.7,40.2z"/>
	<path fill="#1E88E6" d="M113.1,40.3c0-3.9-0.5-7.7-1.5-11.3c0.1,0.1,0.1,0.2,0.1,0.3c-1.5-5.7-4.3-10.7-7.8-14.7
		c-0.2-0.3-0.8-1.4-0.7-2.9c0-2.7,0.3-5.8,0.3-5.8s-2.7,5.1-6.1,3.8c-2.3-0.9-0.2-4.4-0.2-4.4S95.7,6.2,94,7
		c-1.8,0.9-3.8,1.8-5.1,1.4C86.2,7.6,90.2,0,90.2,0s0,0-0.1,0.1l0,0l-0.1,0.1c0,0,0,0-0.1,0.1c-0.1,0-0.1,0.1-0.1,0.1
		s-0.1,0.1-0.1,0.1c-0.1,0-0.1,0.1-0.1,0.1c-0.1,0.1-0.1,0.1-0.1,0.1c0.1,0,0,0.1-0.1,0.1c-0.1,0.1-0.1,0.1-0.1,0.1
		c-0.1,0.1-0.2,0.1-0.2,0.2C89.1,1,89.1,1,89,1.1c-0.1,0.1-0.1,0.1-0.2,0.1c-0.1,0.1-0.1,0.1-0.2,0.2c-0.1,0.1-0.1,0.1-0.2,0.1
		c0,0.1-0.1,0.2-0.2,0.2c-0.1,0.1-0.1,0.1-0.1,0.1C88,1.9,87.9,2,87.8,2.1c-0.1,0-0.1,0.1-0.1,0.1c-0.6,0.5-1.3,1.1-2.1,1.7l0,0
		c-0.4,0.3-0.9,0.7-1.3,1v70.4c0.3,0,0.6,0,0.9-0.1c0.2,0,0.5,0,0.7,0c0.3,0,0.6-0.1,1-0.1c0.2,0,0.5-0.1,0.6-0.1
		c0.3-0.1,0.7-0.1,1.1-0.2c0.2-0.1,0.3-0.1,0.5-0.1c0.4-0.1,0.7-0.2,1.1-0.3c0.2-0.1,0.3-0.1,0.5-0.1c0.4-0.1,0.8-0.2,1.2-0.4
		c0.1-0.1,0.2-0.1,0.3-0.1c0.5-0.2,0.9-0.3,1.3-0.5c0.1,0,0.1-0.1,0.2-0.1c5-2.1,9.3-5.8,12.6-10.7l0,0
		C110.6,56.6,113.1,48.8,113.1,40.3z"/>
	<path fill="#FFFFFF" d="M77.7,40.3c-0.1-2-0.2-4.3-0.4-7.2c-0.4-5.3-1.3-11.1-6.2-11.1c-5.5,0-10.8,6.5-10.8,14.3
		c0,4.4,1.5,8.3,3.9,11C68.3,43.8,72.9,41.4,77.7,40.3z"/>
	<path fill="#FFFFFF" d="M90.2,40.3c0.1-2,0.2-4.3,0.4-7.2c0.4-5.3,1.3-11.1,6.2-11.1c5.5,0,10.8,6.5,10.8,14.3
		c0,4.4-1.5,8.3-3.9,11C99.6,43.8,95,41.4,90.2,40.3z"/>
	<path fill="#2B2A29" d="M103.9,37.4c0-5.7-3.5-10.4-7.8-10.4c-2,0-3.8,1-5.2,2.7c-0.2,1.1-0.3,2.3-0.3,3.4
		c-0.2,2.9-0.3,5.2-0.4,7.2c3.9,0.9,7.5,2.6,11,5C102.9,43.4,103.9,40.5,103.9,37.4z"/>
	<path fill="#2B2A29" d="M64.1,37.4c0,3.1,1,5.9,2.7,7.9c3.4-2.4,7.1-4.1,11-5c-0.1-2-0.2-4.3-0.4-7.2c-0.1-1.1-0.2-2.3-0.3-3.4
		C75.6,28,73.8,27,71.8,27C67.5,27,64.1,31.7,64.1,37.4z"/>
	<g>
		<ellipse fill="#FFFFFF" cx="97.5" cy="32.1" rx="2.4" ry="2.5"/>
		<ellipse fill="#FFFFFF" cx="73.3" cy="32.1" rx="2.4" ry="2.5"/>
	</g>
	<path fill="#FCA426" d="M87,40.3C85.8,39,84,39,84,39l0,0c0,0-1.8,0-3,1.4c-1.7,1-3.1,2.6-1.2,4.5c0.1,0.1,0.2,0.2,0.2,0.2
		c0.5,3.5,2.6,6.7,3.9,8.6l0,0c1.4-1.9,3.5-5.2,3.9-8.6c0.1-0.1,0.1-0.2,0.2-0.2C90.1,43,88.6,41.4,87,40.3z"/>
	<path fill="#E6951F" d="M87.3,40.3c-1.2-1.4-3-1.4-3-1.4l0,0v14.7l0,0c1.4-1.9,3.5-5.2,3.9-8.6c0.1-0.1,0.1-0.2,0.2-0.2
		C90.4,43,89,41.4,87.3,40.3z"/>
	<g>
		<ellipse fill="#2B2A29" cx="82.1" cy="43.3" rx="0.6" ry="1.3"/>
		<ellipse fill="#2B2A29" cx="85.7" cy="43.1" rx="0.6" ry="1.3"/>
	</g>
	<path fill="#1972BF" d="M96.9,16.7c-0.2-0.1-0.4-0.1-0.6-0.1v-0.1c-0.8-0.2-1.3-1.1-1-1.9c0.2-0.8,1.1-1.3,1.9-1
		c2.6,0.7,4.2,3.4,3.7,6.1C99.9,18.3,98.6,17.2,96.9,16.7z"/>
	<path fill="#1D79C9" d="M67.3,19.7c-0.6-2.6,1-5.3,3.7-6.1c0.8-0.2,1.7,0.2,1.9,1c0.2,0.8-0.3,1.7-1.1,1.9v0.1
		c-0.2,0.1-0.4,0.1-0.6,0.1C69.4,17.2,68.1,18.3,67.3,19.7z"/>
</g>
<g id="outfit">
	<path fill="#D5D2D2" d="M84,55.7c-11,0-21-4.2-28.6-11C57.1,62,69.3,75.4,84,75.4c14.7,0,26.8-13.4,28.6-30.7
		C105,51.5,95,55.7,84,55.7z"/>
	<path fill="#46CBB3" d="M94.9,54.3c-3.5,0.9-7.1,1.4-10.9,1.4c-3.7,0-7.3-0.5-10.7-1.4l9.7,9.7l-2.4,5.5l3.4,4.7l3.4-4.7L85,64.1
		L94.9,54.3z"/>
	<path fill="#3FB29C" d="M95.1,54.3c-3.5,0.9-7.1,1.4-10.9,1.4l0,0v18.5l3.4-4.7l-2.3-5.4L95.1,54.3z"/>
	<path fill="#FFFFFF" d="M69.2,70.5L84,55.7l14.7,14.7c7.4-5.4,12.6-14.8,13.8-25.7C105,51.5,95,55.6,84,55.6s-21-4.2-28.6-11
		C56.5,55.7,61.8,65,69.2,70.5z"/>
	<path fill="#E5E5E5" d="M84,55.7L84,55.7L84,55.7l14.7,14.7c7.4-5.4,12.6-14.8,13.8-25.7C105,51.5,95,55.7,84,55.7z"/>
	<path fill="#2F3538" d="M55.3,43.9C56.7,61.6,69,75.4,83.9,75.4s27.2-13.8,28.6-31.5c-12,6.6-21.9,16.5-28.6,28.5
		C77.4,60.5,67.4,50.5,55.3,43.9z"/>
	<path fill="#222629" d="M84,72.5L84,72.5v3c14.9,0,27.1-13.8,28.6-31.5C100.6,50.6,90.6,60.5,84,72.5z"/>
	<g>
		<path fill="#222629" d="M117.4,50.4c0.4-1.7,0.6-3.3,0.6-5c0-5.9-2.5-11.5-6.7-15.9c-0.1-0.1-0.1-0.2-0.1-0.3
			c1,3.5,1.5,7.3,1.5,11.3c0,8.5-2.5,16.3-6.6,22.3l0.9,2.3l0,0c7.4-4.3,12.7-11.9,13.9-20.7C119.9,46.5,118.8,48.6,117.4,50.4z"/>
		<path fill="#2F3538" d="M55.2,40.4c0-3.8,0.5-7.5,1.4-10.9c-4.2,4.5-6.6,9.9-6.6,15.9c0,1.7,0.2,3.3,0.6,4.9
			c-1.4-1.8-2.5-3.8-3.4-5.9c1.2,8.8,6.4,16.3,13.8,20.6C61,65,61,65,61,65.1l0.8-2.3C57.7,56.7,55.2,48.9,55.2,40.4z"/>
	</g>
	<path fill="#222629" d="M112.8,41.5c-0.1-0.6-0.2-1.9-0.2-2c0,0.3,0,0.6,0,0.9c0,8.5-2.4,16.2-6.6,22.3l0.9,2.3
		C111.1,58.7,113.4,50.5,112.8,41.5z"/>
	<path fill="#222629" d="M55,41.5c0.1-0.6,0.2-1.9,0.2-2c0,0.3,0,0.6,0,0.9c0,8.5,2.5,16.3,6.7,22.3L61,65.1
		C56.8,58.7,54.5,50.5,55,41.5z"/>
</g>
<g id="Server">
	<path fill="#39444D" d="M103.7,55.4h46.9c1.2,0,2.3,1.1,2.3,2.3v20c0,1.2-1.1,2.3-2.3,2.3h-46.9c-1.2,0-2.3-1.1-2.3-2.3v-20
		C101.4,56.5,102.5,55.4,103.7,55.4z"/>
	<path fill="#39444D" d="M103.7,16h46.9c1.2,0,2.3,1.1,2.3,2.3v30.9c0,1.2-1.1,2.3-2.3,2.3h-46.9c-1.2,0-2.3-1.1-2.3-2.3V18.3
		C101.4,17.1,102.5,16,103.7,16z"/>
	<path fill="#22292E" d="M147.1,60.6h-38.9c-0.6,0-1.1,0.5-1.1,1.1v6.9c0,0.6,0.5,1.1,1.1,1.1h38.9c0.6,0,1.1-0.5,1.1-1.1v-6.9
		C148.3,61.1,147.8,60.6,147.1,60.6z"/>
	<g>
		<rect x="147.1" y="72" fill="#22292E" width="0.6" height="4"/>
		<rect x="114" y="72" fill="#22292E" width="0.6" height="4"/>
		<rect x="112.9" y="72" fill="#22292E" width="0.6" height="4"/>
		<rect x="111.7" y="72" fill="#22292E" width="0.6" height="4"/>
		<rect x="110.6" y="72" fill="#22292E" width="0.6" height="4"/>
		<rect x="107.1" y="72" fill="#22292E" width="0.6" height="4"/>
		<rect x="108.3" y="72" fill="#22292E" width="0.6" height="4"/>
		<rect x="109.4" y="72" fill="#22292E" width="0.6" height="4"/>
		<rect x="115.1" y="72" fill="#22292E" width="0.6" height="4"/>
		<rect x="116.3" y="72" fill="#22292E" width="0.6" height="4"/>
		<rect x="117.4" y="72" fill="#22292E" width="0.6" height="4"/>
		<rect x="118.6" y="72" fill="#22292E" width="0.6" height="4"/>
		<rect x="119.7" y="72" fill="#22292E" width="0.6" height="4"/>
		<rect x="120.9" y="72" fill="#22292E" width="0.6" height="4"/>
		<rect x="122" y="72" fill="#22292E" width="0.6" height="4"/>
		<rect x="123.1" y="72" fill="#22292E" width="0.6" height="4"/>
		<rect x="124.3" y="72" fill="#22292E" width="0.6" height="4"/>
		<rect x="125.4" y="72" fill="#22292E" width="0.6" height="4"/>
		<rect x="126.6" y="72" fill="#22292E" width="0.6" height="4"/>
		<rect x="127.7" y="72" fill="#22292E" width="0.6" height="4"/>
		<rect x="128.9" y="72" fill="#22292E" width="0.6" height="4"/>
		<rect x="130" y="72" fill="#22292E" width="0.6" height="4"/>
		<rect x="131.1" y="72" fill="#22292E" width="0.6" height="4"/>
		<rect x="132.3" y="72" fill="#22292E" width="0.6" height="4"/>
		<rect x="133.4" y="72" fill="#22292E" width="0.6" height="4"/>
		<rect x="134.6" y="72" fill="#22292E" width="0.6" height="4"/>
		<rect x="135.7" y="72" fill="#22292E" width="0.6" height="4"/>
		<rect x="136.9" y="72" fill="#22292E" width="0.6" height="4"/>
		<rect x="138" y="72" fill="#22292E" width="0.6" height="4"/>
		<rect x="139.1" y="72" fill="#22292E" width="0.6" height="4"/>
		<rect x="140.3" y="72" fill="#22292E" width="0.6" height="4"/>
		<rect x="141.4" y="72" fill="#22292E" width="0.6" height="4"/>
		<rect x="142.6" y="72" fill="#22292E" width="0.6" height="4"/>
		<rect x="143.7" y="72" fill="#22292E" width="0.6" height="4"/>
		<rect x="144.9" y="72" fill="#22292E" width="0.6" height="4"/>
		<rect x="146" y="72" fill="#22292E" width="0.6" height="4"/>
	</g>
	<g>
		<circle fill="#3FB6A1" cx="111.1" cy="65.1" r="1.1"/>
		<circle fill="#3FB6A1" cx="115.1" cy="65.1" r="1.1"/>
		<circle fill="#3FB6A1" cx="119.1" cy="65.1" r="1.1"/>
	</g>
	<g>
		<rect x="140.9" y="62.3" fill="#2A3239" width="1.1" height="1.1"/>
		<rect x="143.1" y="62.3" fill="#2A3239" width="1.1" height="1.1"/>
		<rect x="145.4" y="62.3" fill="#2A3239" width="1.1" height="1.1"/>
		<rect x="140.9" y="64.6" fill="#2A3239" width="1.1" height="1.1"/>
		<rect x="143.1" y="64.6" fill="#2A3239" width="1.1" height="1.1"/>
		<rect x="145.4" y="64.6" fill="#2A3239" width="1.1" height="1.1"/>
		<rect x="140.9" y="66.9" fill="#2A3239" width="1.1" height="1.1"/>
		<rect x="143.1" y="66.9" fill="#2A3239" width="1.1" height="1.1"/>
		<rect x="145.4" y="66.9" fill="#2A3239" width="1.1" height="1.1"/>
	</g>
	<path fill="#3594E8" d="M148.3,48H106c-0.6,0-1.1-0.5-1.1-1.1V20.6c0-0.6,0.5-1.1,1.1-1.1h42.3c0.6,0,1.1,0.5,1.1,1.1v26.3
		C149.4,47.5,148.9,48,148.3,48z"/>
	<path fill="#FFFFFF" d="M125.7,25.1c-3.3,0-6,2.7-6,6c0,0.1,0,0.2,0,0.3l0,0c-2.5,0-4.6,2.1-4.6,4.6c0,2.5,2.1,4.6,4.6,4.6h13.7
		c3.1,0,5.7-2.6,5.7-5.7s-2.6-5.7-5.7-5.7c-0.7,0-1.4,0.2-2,0.4C130.7,27,128.5,25.1,125.7,25.1z M125.7,26.3c2.4,0,4.4,1.8,4.8,4.1
		l0.1,0.8l0.7-0.3c0.6-0.3,1.3-0.5,2.1-0.5c2.5,0,4.6,2.1,4.6,4.6s-2.1,4.6-4.6,4.6h-13.7c-1.9,0-3.4-1.5-3.4-3.4s1.5-3.4,3.4-3.4
		c0.2,0,0.3,0,0.6,0.1l0.8,0.1L121,32c-0.1-0.3-0.1-0.6-0.1-0.8C120.9,28.5,123,26.3,125.7,26.3z"/>
	<path opacity="0.1" enable-background="new    " d="M150.6,55.4h-24V80h24c1.2,0,2.3-1.1,2.3-2.3v-20
		C152.9,56.5,151.8,55.4,150.6,55.4z"/>
	<path opacity="0.1" enable-background="new    " d="M150.6,16h-24v35.4h24c1.2,0,2.3-1.1,2.3-2.3V18.3
		C152.9,17.1,151.8,16,150.6,16z"/>
</g>
</svg>
