<?xml version="1.0" standalone="no"?><!DOCTYPE svg PUBLIC "-//W3C//DTD SVG 1.1//EN" "http://www.w3.org/Graphics/SVG/1.1/DTD/svg11.dtd"><svg t="1491496722463" class="icon" style="" viewBox="0 0 1024 1024" version="1.1" xmlns="http://www.w3.org/2000/svg" p-id="1123" xmlns:xlink="http://www.w3.org/1999/xlink" width="200" height="200"><defs><style type="text/css"></style></defs><path d="M879.273374 208.734384H149.893172c-25.865051 0-46.557091 15.76598-46.557091 42.035717v472.86303c0 21.008808 20.690747 42.021495 41.386666 42.021495h292.38691l-7.263677 51.59693h-56.903111c-20.690747 0-36.211071 26.265859-36.211071 47.282424h346.583919c5.17301-15.758222-10.348606-47.282424-31.039353-47.282424h-56.903111l-8.490667-51.595637h292.390788c20.686869 0 41.377616-21.01398 41.377616-42.021495v-472.86303c0-26.269737-20.690747-42.03701-41.377616-42.03701z m-5.174303 436.081778H155.068768V256.023273h719.030303v388.792889zM351.636687 392.626424c12.189737 0 24.304485-5.092848 32.920566-13.851151 8.617374-8.750545 13.636525-21.056646 13.636525-33.431273 0-12.38497-5.020444-24.687192-13.636525-33.441616-8.616081-8.754424-20.730828-13.84598-32.920566-13.84598-12.185859 0-24.299313 5.092848-32.920566 13.84598-8.616081 8.754424-13.636525 21.056646-13.636525 33.441616 0 12.383677 5.020444 24.679434 13.636525 33.431273 8.61996 8.75701 20.733414 13.851152 32.920566 13.851151z m382.797576 63.053576H537.859879v136.599273h196.573091V455.68h0.001293z m0-136.60703H537.859879v15.756929h196.573091v-15.756929h0.001293z m0 31.522909H537.859879v15.76598h196.573091v-15.76598h0.001293zM491.30796 455.68H294.734869v15.758222H491.30796V455.68z m0 31.512566H294.734869v15.765979H491.30796v-15.765979z m0 26.276202H294.734869v15.756929H491.30796v-15.756929z m0 31.524202H294.734869v15.764687H491.30796v-15.764687z m0 31.520323H294.734869v15.764687H491.30796v-15.764687z" p-id="1124" fill="#1e88e5"></path></svg>