<?xml version="1.0" standalone="no"?><!DOCTYPE svg PUBLIC "-//W3C//DTD SVG 1.1//EN" "http://www.w3.org/Graphics/SVG/1.1/DTD/svg11.dtd"><svg t="1491496990033" class="icon" style="" viewBox="0 0 1024 1024" version="1.1" xmlns="http://www.w3.org/2000/svg" p-id="3429" xmlns:xlink="http://www.w3.org/1999/xlink" width="200" height="200"><defs><style type="text/css"></style></defs><path d="M512.006651 111.099331c-221.403552 0-400.883273 179.341574-400.883273 400.575258 0 204.364481 153.144936 372.971573 351.012446 397.506363 11.154038 2.349511 24.738427 3.719718 40.922015 3.719718 4.539386 0 8.922207-0.240477 13.153578-0.673335 219.458247-2.25332 396.664182-180.715875 396.664182-400.552745C912.875598 290.440905 733.398948 111.099331 512.006651 111.099331zM448.797028 873.396957C276.278859 843.269799 145.144216 692.871417 145.144216 511.850597c0-25.953092 2.705622-51.277874 7.830339-75.710332 15.862269 16.965393 53.251831 16.564257 62.370513-8.78406 16.311501 9.724479 38.236859 11.491729 38.236859 30.92943 0 64.137763 2.282996 132.902916 60.562331 133.967154 1.64036 0.020466 32.501228 11.692297 47.187719 49.780777 5.077645 13.165858 25.162076 0 47.188742 0 10.997472 0 0 18.523889 0 58.58428 0 39.906895 86.032422 101.349269 86.032422 101.349269-0.394996 26.415626 0.688685 47.77612 2.883677 64.839751C478.020606 866.445638 461.649753 869.019253 448.797028 873.396957zM602.894661 867.685885c-1.905396-9.322319-10.235109-14.428617-25.434276-10.43056 12.126178-51.64831 18.021445-80.58127 43.341111-102.546537 36.629245-31.755238 4.362354-67.067488-23.514553-62.907749-21.970384 3.318582-8.085142-27.200502-27.696806-28.891004-19.609617-1.639337-45.215808-40.645722-73.441663-54.069453-14.960737-7.100722-29.66053-26.143427-52.736085-26.996864-20.450774-0.795109-50.337455 17.292851-50.337455 3.349281 0-44.901653-4.545526-76.943416-5.478781-89.734744-0.754177-10.281157-6.721075-3.465938 20.924565-2.798742 15.046694 0.400113 7.697309-30.222325 22.591531-31.416524 14.626115-1.158383 49.477878 13.688767 58.356083 7.773034 8.247848-5.510504 60.640102 137.51598 60.640102 23.639396 0-13.509688-7.000438-37.000706 0-49.799196 27.672246-50.566676 53.581336-91.781356 51.254338-97.8117-1.318018-3.391237-28.311813-6.194072-49.912783 1.051959-7.286963 2.433422 2.319835 13.853519-8.149611 16.291035-39.222303 9.05319-73.880661-10.579963-61.744249-29.031197 12.429077-18.910699 57.456596-8.247848 61.400419-46.184879 2.270716-21.732977 4.152577-46.901193 5.412266-65.606207 52.79339 8.256034 46.978964-68.511373-31.514761-76.726475 158.800749 1.858324 293.363468 104.411001 342.743108 246.740614-2.494821-2.27481-5.402033-3.66139-8.757454-3.997034-23.734564-59.282175-81.337493-16.381086-61.794391 35.904745-104.70162 80.485079-77.901231 136.620587-43.50177 168.765705 18.10024 16.895809 35.359322 42.307571 46.594201 60.557214-12.228509 35.664268 45.059242 21.381983 73.318866-39.135322C829.515029 738.317469 729.252511 835.721893 602.894661 867.685885zM848.013335 439.575504c4.971222 23.25054 7.592932 47.368844 7.592932 72.099085 0 1.89414-0.022513 3.78214-0.049119 5.668093-1.156336-19.98824-3.797489-39.548738-7.814989-58.561767C848.098269 451.991278 848.193437 445.557752 848.013335 439.575504z" p-id="3430" fill="#1e88e5"></path></svg>