<?xml version="1.0" standalone="no"?><!DOCTYPE svg PUBLIC "-//W3C//DTD SVG 1.1//EN" "http://www.w3.org/Graphics/SVG/1.1/DTD/svg11.dtd"><svg t="1491496898991" class="icon" style="" viewBox="0 0 1024 1024" version="1.1" xmlns="http://www.w3.org/2000/svg" p-id="2698" xmlns:xlink="http://www.w3.org/1999/xlink" width="200" height="200"><defs><style type="text/css"></style></defs><path d="M928.768 655.36c-6.144 0-18.432-37.888-31.744-63.488-19.456-41.984-35.84-106.496-87.04-106.496-45.056 0-65.536 54.272-84.992 105.472 0 17.408-17.408 48.128-24.576 64.512-16.384-22.528-27.648-148.48-33.792-217.088-25.6-178.176-36.864-295.936-94.208-295.936s-65.536 119.808-84.992 288.768c-6.144 67.584-20.48 182.272-33.792 225.28-13.312-17.408-22.528-48.128-28.672-64.512-18.432-43.008-36.864-110.592-88.064-110.592-46.08 1.024-65.536 61.44-84.992 112.64-6.144 25.6-19.456 61.44-29.696 61.44-13.312-1.024-25.6-35.84-34.816-62.464-19.456-41.984-36.864-106.496-88.064-106.496-19.456 0-31.744 12.288-31.744 37.888s15.36 40.96 34.816 40.96c6.144 0 18.432 35.84 31.744 61.44 19.456 41.984 35.84 109.568 87.04 109.568s70.656-59.392 90.112-109.568c6.144-25.6 16.384-59.392 28.672-61.44 12.288-1.024 22.528 35.84 34.816 61.44 19.456 41.984 38.912 109.568 90.112 109.568 53.248 0 67.584-116.736 87.04-286.72 6.144-59.392 18.432-148.48 25.6-199.68 13.312 51.2 22.528 138.24 28.672 197.632 19.456 178.176 31.744 287.744 90.112 287.744 51.2 0 67.584-60.416 86.016-111.616 6.144-25.6 20.48-63.488 33.792-63.488s25.6 38.912 37.888 64.512c19.456 41.984 38.912 110.592 86.016 110.592 13.312 0 27.648-9.216 27.648-41.984-1.024-24.576-19.456-37.888-38.912-37.888z" fill="#1e88e5" p-id="2699"></path></svg>