<?xml version="1.0" encoding="utf-8"?>
<!-- Generator: Adobe Illustrator 18.0.0, SVG Export Plug-In . SVG Version: 6.00 Build 0)  -->
<!DOCTYPE svg PUBLIC "-//W3C//DTD SVG 1.1//EN" "http://www.w3.org/Graphics/SVG/1.1/DTD/svg11.dtd">
<svg version="1.1" xmlns="http://www.w3.org/2000/svg" xmlns:xlink="http://www.w3.org/1999/xlink" x="0px" y="0px"
	 viewBox="0 0 185 140" enable-background="new 0 0 185 140" xml:space="preserve">
<g id="Layer_1">
	<g id="bird">
		<path fill="#FCA426" d="M65.2,131.7c-0.4,0.4-3.4,0.4-6.8,3.4c-3.4,3-1.8,4.6-4,4c-2.1-0.7-2.4-2.9-1.5-4.8l-0.1,0.1
			c-3.4,3-1.8,4.6-4,4c-1.8-0.6-2.2-2.2-1.9-3.8c-2.2,2.4-1.1,3.6-3,3.1c-3-0.9-2.3-4.8-0.2-6.7c2-1.8,5.6-2.8,8.2-2.9l0,0l0,0l0,0
			c2.9,1.5,7.8,2.4,13.2,2.4s10.3-1,13.2-2.4c0.9,0,1.8,0.2,2.8,0.4l3.9,1.4c0.6,0.3,1.1,0.7,1.6,1.1c2.1,1.9,2.8,5.8-0.2,6.7
			c-1.9,0.6-0.8-0.6-3-3.1c0.4,1.6-0.1,3.3-1.9,3.8c-2.1,0.7-0.5-0.9-4-4l-0.1-0.1c0.8,1.9,0.6,4.1-1.5,4.8c-2.1,0.7-0.5-0.9-4-4
			C68.6,132.1,65.6,132.2,65.2,131.7z"/>
		<path fill="#E6951F" d="M86.7,130.9c-0.5-0.4-1-0.8-1.6-1.1l-3.9-1.4c-1-0.2-1.9-0.4-2.8-0.4c-2.9,1.5-7.8,2.4-13.2,2.4l0,0v1.2
			l0,0c0.4,0.4,3.4,0.4,6.8,3.4c3.4,3,1.8,4.6,4,4c2.1-0.7,2.4-2.9,1.5-4.8l0.1,0.1c3.4,3,1.8,4.6,4,4c1.8-0.6,2.2-2.2,1.9-3.8
			c2.2,2.4,1.1,3.6,3,3.1C89.5,136.7,88.8,132.8,86.7,130.9z"/>
		<path fill="#3594E8" d="M112.9,50.8c0.1,0.2,0.1,0.4,0.2,0.5c-2.7-10-7.5-18.8-13.7-25.8c-0.4-0.5-1.4-2.5-1.3-5
			c0-4.7,0.5-10.1,0.5-10.1s-4.7,8.9-10.7,6.7c-4-1.5-0.3-7.7-0.3-7.7s-2.5,1.4-5.4,2.9c-3.1,1.6-6.7,3.2-9,2.4
			C68.5,13.3,75.6,0,75.6,0S60.3,13.4,57.2,13.6c-4.1,0.2-3.6-6-3.6-6s-4.5,4.8-6.9,6c-13.8,6.7-24.6,20.5-29.3,37.8
			c-2.3,2.4-2.3,2.5-0.1,0.1C10.1,59.2,5.8,68.8,5.8,79.2c0,2.9,0.4,5.8,1,8.6c-2.4-3.2-4.4-6.7-6-10.4C2.8,92.8,12,106,24.8,113.6
			c0.1,0.1,0.2,0.1,0.2,0.2l1.4-4c-7.3-10.6-11.7-24.3-11.7-39.2c0-6.7,0.9-13.1,2.5-19.1c0,0,0,0,0,0c-1.6,6-2.5,12.4-2.5,19.1
			c0,14.9,4.4,28.6,11.7,39.2l0-0.1c9.2,13.5,23.1,22.1,38.7,22.1c15.6,0,29.5-8.6,38.7-22.1l0,0c7.3-10.6,11.6-24.2,11.6-39.1
			C115.6,63.6,114.6,57,112.9,50.8z"/>
		<path fill="#1E88E6" d="M115.6,70.5c0-6.9-0.9-13.5-2.7-19.7c0.1,0.2,0.1,0.4,0.2,0.5c-2.7-10-7.5-18.8-13.7-25.8
			c-0.4-0.5-1.4-2.5-1.3-5c0-4.7,0.5-10.1,0.5-10.1s-4.7,8.9-10.7,6.7c-4-1.5-0.3-7.7-0.3-7.7s-2.5,1.4-5.4,2.9
			c-3.1,1.6-6.7,3.2-9,2.4C68.5,13.3,75.6,0,75.6,0s0,0-0.1,0.1c0,0,0,0,0,0c0,0-0.1,0.1-0.1,0.1c0,0,0,0-0.1,0.1
			c-0.1,0-0.1,0.1-0.2,0.1c-0.1,0-0.1,0.1-0.2,0.1c-0.1,0-0.1,0.1-0.2,0.2c-0.1,0.1-0.1,0.1-0.2,0.2C74.6,0.9,74.5,1,74.4,1
			c-0.1,0.1-0.1,0.1-0.2,0.2c-0.1,0.1-0.3,0.2-0.4,0.4c-0.1,0.1-0.2,0.2-0.4,0.3c-0.1,0.1-0.2,0.1-0.3,0.2c-0.1,0.1-0.2,0.2-0.4,0.3
			c-0.1,0.1-0.2,0.2-0.3,0.2c-0.1,0.1-0.3,0.2-0.4,0.4c-0.1,0.1-0.2,0.1-0.2,0.2c-0.2,0.1-0.3,0.3-0.5,0.4c-0.1,0-0.1,0.1-0.2,0.1
			c-1.1,0.9-2.3,1.9-3.6,2.9c0,0,0,0,0,0c-0.7,0.6-1.5,1.2-2.3,1.8v123.2c0.5,0,1,0,1.6-0.1c0.4,0,0.9,0,1.3,0
			c0.6,0,1.1-0.1,1.7-0.2c0.4,0,0.8-0.1,1.1-0.1c0.6-0.1,1.3-0.2,1.9-0.3c0.3-0.1,0.6-0.1,0.9-0.2c0.7-0.1,1.3-0.3,2-0.5
			c0.3-0.1,0.5-0.1,0.8-0.2c0.7-0.2,1.4-0.4,2.1-0.7c0.2-0.1,0.4-0.1,0.6-0.2c0.8-0.3,1.6-0.6,2.3-0.9c0.1,0,0.2-0.1,0.3-0.1
			c8.7-3.7,16.3-10.2,22.1-18.7l0,0C111.2,99,115.6,85.4,115.6,70.5z"/>
		<path fill="#FFFFFF" d="M54.3,70.6c-0.1-3.5-0.3-7.6-0.7-12.6c-0.7-9.2-2.3-19.5-10.8-19.5c-9.6,0-18.9,11.3-18.9,25
			c0,7.7,2.6,14.6,6.8,19.2C37.9,76.8,45.8,72.6,54.3,70.6z"/>
		<path fill="#FFFFFF" d="M76.2,70.6c0.1-3.5,0.3-7.6,0.7-12.6c0.7-9.2,2.3-19.5,10.8-19.5c9.6,0,18.9,11.3,18.9,25
			c0,7.7-2.6,14.6-6.8,19.2C92.5,76.8,84.6,72.6,76.2,70.6z"/>
		<path fill="#2B2A29" d="M100.1,65.6c0-10-6.1-18.2-13.6-18.2c-3.5,0-6.7,1.8-9.1,4.7c-0.3,2-0.5,4-0.6,5.9
			c-0.4,5-0.6,9.1-0.7,12.6c6.8,1.6,13.2,4.5,19.2,8.7C98.3,76.1,100.1,71.1,100.1,65.6z"/>
		<path fill="#2B2A29" d="M30.3,65.6c0,5.5,1.8,10.4,4.7,13.8c6-4.2,12.5-7.2,19.2-8.7c-0.1-3.5-0.3-7.6-0.7-12.6
			c-0.1-2-0.3-4-0.6-6c-2.4-2.9-5.6-4.6-9-4.6C36.4,47.4,30.3,55.5,30.3,65.6z"/>
		<g>
			<path fill="#2B2A29" d="M54.3,70.6c0,0-4.5,1-10.6,3.8c-6.1,2.9-8.8,4.7-8.8,4.7s-7.4-9.3-3.3-20.9C35.6,46.6,45,46.9,47.1,47.8
				c2.1,0.8,5.9,2.7,6.1,4.9C53.4,54.9,54.3,70.6,54.3,70.6z"/>
			<path fill="#2B2A29" d="M76.1,70.6c0,0,4.5,1,10.6,3.8c6.1,2.9,8.8,4.7,8.8,4.7s7.4-9.3,3.3-20.9c-4.1-11.6-13.4-11.2-15.5-10.4
				c-2.1,0.8-5.9,2.7-6.1,4.9C77,54.9,76.1,70.6,76.1,70.6z"/>
		</g>
		<g>
			<ellipse fill="#FFFFFF" cx="88.9" cy="56.4" rx="4.2" ry="4.4"/>
			<ellipse fill="#FFFFFF" cx="46.5" cy="56.4" rx="4.2" ry="4.4"/>
		</g>
		<path fill="#FFFFFF" d="M86.4,107.2c0-0.1,0.1-4.8-3-7.2c-5.5-4.3-15.5-2.5-18.2,1.9c-9.7-5.5-17.2-0.9-19.7,3
			c-1.7,2.6-1.8,6.9-1.7,7c0,0-6-0.9-7.7,4.2c-1.6,4.8,5,8.5,8.2,10.3c4.3,2.5,11.8,5.5,20.9,5.5c10,0,17.9-3.6,21.6-5.8
			c5.8-3.4,9-7.3,8.3-12.2C94.1,106.8,87.8,107.2,86.4,107.2z M65.5,127.3L65.5,127.3L65.5,127.3L65.5,127.3L65.5,127.3z"/>
		<path fill="#E1E4E5" d="M95.1,113.8c-1-7-7.4-6.6-8.7-6.6c0-0.1,0.1-4.8-3-7.2c-5.4-4.2-15.1-2.6-18.1,1.7v30.2
			c10,0,17.9-3.6,21.6-5.8C92.7,122.6,95.9,118.7,95.1,113.8z M65.5,127.3L65.5,127.3L65.5,127.3L65.5,127.3L65.5,127.3z"/>
		<path fill="#FCA426" d="M70.5,70.8c-2.1-2.4-5.2-2.4-5.2-2.4l0,0c0,0-3.1,0-5.2,2.4c-3,1.8-5.4,4.6-2.1,7.9
			c0.1,0.1,0.3,0.3,0.4,0.4c0.8,6.1,4.5,11.8,6.9,15.1l0,0c2.5-3.3,6.1-9.1,6.9-15.1c0.1-0.2,0.2-0.3,0.4-0.4
			C75.9,75.4,73.4,72.6,70.5,70.8z"/>
		<path fill="#E6951F" d="M70.5,70.8c-2.1-2.4-5.2-2.4-5.2-2.4l0,0v25.8l0,0c2.5-3.3,6.1-9.1,6.9-15.1c0.1-0.2,0.2-0.3,0.4-0.4
			C75.9,75.4,73.4,72.6,70.5,70.8z"/>
		<g>
			<ellipse fill="#2B2A29" cx="62" cy="75.8" rx="1" ry="2.2"/>
			<ellipse fill="#2B2A29" cx="68.3" cy="75.6" rx="1" ry="2.2"/>
		</g>
		<path fill="#2B2A29" d="M64.6,121.7l4.9-12.3c0.2-0.4,0.5-0.7,0.8-0.7c0.4,0,0.6,0.1,0.8,0.3c0.2,0.2,0.3,0.4,0.3,0.6
			s0,0.4-0.1,0.5l-5.2,12.6c-0.3,0.6-0.7,1-1.3,1h-0.5c-0.6,0-1-0.3-1.3-1l-2-4.9h1.2H63L64.6,121.7z"/>
		<path fill="#1E88E5" d="M59.7,109.4L59.7,109.4c-0.2-0.4-0.6-0.7-1.1-0.7c0,0,0,0,0,0h0H56l0,0h0c-0.5,0-0.9,0.4-0.9,0.9
			s0.4,0.9,0.9,0.9c0,0,0,0,0,0l2.1,0l1.1,2.6l1.1,2.8h2L59.7,109.4z"/>
		<path opacity="0.5" fill="#1972BF" enable-background="new    " d="M87.9,29.5c-0.3-0.1-0.7-0.2-1-0.2l0-0.1
			c-1.4-0.4-2.2-1.9-1.8-3.3c0.4-1.4,1.9-2.2,3.3-1.8c4.6,1.3,7.4,6,6.4,10.6C93.2,32.2,90.8,30.3,87.9,29.5z"/>
		<path opacity="0.5" fill="#1D79C9" enable-background="new    " d="M36,34.7c-1-4.6,1.8-9.3,6.4-10.6c1.4-0.4,2.9,0.4,3.3,1.8
			c0.4,1.4-0.4,2.9-1.8,3.3l0,0.1c-0.3,0.1-0.7,0.1-1,0.2C39.8,30.3,37.5,32.2,36,34.7z"/>
		<path fill="#0277BD" d="M14.6,72.4c0.1-1,0.3-3.3,0.3-3.5c0,0.5,0,1.1,0,1.6c0,14.9,4.4,28.5,11.7,39.1l-1.5,4.1
			C17.7,102.6,13.6,88.1,14.6,72.4z"/>
	</g>
	<g id="Server">
		<path fill="#39444D" d="M98.7,28h82.6c2.1,0,3.7,1.6,3.7,3.7v104.5c0,2.1-1.7,3.8-3.8,3.8H98.6c-2.1,0-3.6-1.6-3.6-3.7V31.7
			C95,29.5,96.6,28,98.7,28z"/>
		<g>
			<path fill="#22292E" d="M174,86h-68c-1.1,0-2,0.9-2,2v12c0,1.1,0.9,2,2,2h68c1.1,0,2-0.9,2-2V88C176,86.9,175.1,86,174,86z"/>
			<path fill="#22292E" d="M174,106h-68c-1.1,0-2,0.9-2,2v12c0,1.1,0.9,2,2,2h68c1.1,0,2-0.9,2-2v-12C176,106.9,175.1,106,174,106z"
				/>
			<path fill="#22292E" d="M176,60c0,1.1-0.9,2-2,2h-68c-1.1,0-2-0.9-2-2V48c0-1.1,0.9-2,2-2h68c1.1,0,2,0.9,2,2V60z"/>
			<path fill="#22292E" d="M176,80c0,1.1-0.9,2-2,2h-68c-1.1,0-2-0.9-2-2V68c0-1.1,0.9-2,2-2h68c1.1,0,2,0.9,2,2V80z"/>
		</g>
		<g>
			<rect x="174" y="126" fill="#22292E" width="1" height="7"/>
			<rect x="116" y="126" fill="#22292E" width="1" height="7"/>
			<rect x="114" y="126" fill="#22292E" width="1" height="7"/>
			<rect x="112" y="126" fill="#22292E" width="1" height="7"/>
			<rect x="110" y="126" fill="#22292E" width="1" height="7"/>
			<rect x="104" y="126" fill="#22292E" width="1" height="7"/>
			<rect x="106" y="126" fill="#22292E" width="1" height="7"/>
			<rect x="108" y="126" fill="#22292E" width="1" height="7"/>
			<rect x="118" y="126" fill="#22292E" width="1" height="7"/>
			<rect x="120" y="126" fill="#22292E" width="1" height="7"/>
			<rect x="122" y="126" fill="#22292E" width="1" height="7"/>
			<rect x="124" y="126" fill="#22292E" width="1" height="7"/>
			<rect x="126" y="126" fill="#22292E" width="1" height="7"/>
			<rect x="128" y="126" fill="#22292E" width="1" height="7"/>
			<rect x="130" y="126" fill="#22292E" width="1" height="7"/>
			<rect x="132" y="126" fill="#22292E" width="1" height="7"/>
			<rect x="134" y="126" fill="#22292E" width="1" height="7"/>
			<rect x="136" y="126" fill="#22292E" width="1" height="7"/>
			<rect x="138" y="126" fill="#22292E" width="1" height="7"/>
			<rect x="140" y="126" fill="#22292E" width="1" height="7"/>
			<rect x="142" y="126" fill="#22292E" width="1" height="7"/>
			<rect x="144" y="126" fill="#22292E" width="1" height="7"/>
			<rect x="146" y="126" fill="#22292E" width="1" height="7"/>
			<rect x="148" y="126" fill="#22292E" width="1" height="7"/>
			<rect x="150" y="126" fill="#22292E" width="1" height="7"/>
			<rect x="152" y="126" fill="#22292E" width="1" height="7"/>
			<rect x="154" y="126" fill="#22292E" width="1" height="7"/>
			<rect x="156" y="126" fill="#22292E" width="1" height="7"/>
			<rect x="158" y="126" fill="#22292E" width="1" height="7"/>
			<rect x="160" y="126" fill="#22292E" width="1" height="7"/>
			<rect x="162" y="126" fill="#22292E" width="1" height="7"/>
			<rect x="164" y="126" fill="#22292E" width="1" height="7"/>
			<rect x="166" y="126" fill="#22292E" width="1" height="7"/>
			<rect x="168" y="126" fill="#22292E" width="1" height="7"/>
			<rect x="170" y="126" fill="#22292E" width="1" height="7"/>
			<rect x="172" y="126" fill="#22292E" width="1" height="7"/>
		</g>
		<g>
			<rect x="174" y="35" fill="#22292E" width="1" height="7"/>
			<rect x="116" y="35" fill="#22292E" width="1" height="7"/>
			<rect x="114" y="35" fill="#22292E" width="1" height="7"/>
			<rect x="112" y="35" fill="#22292E" width="1" height="7"/>
			<rect x="110" y="35" fill="#22292E" width="1" height="7"/>
			<rect x="104" y="35" fill="#22292E" width="1" height="7"/>
			<rect x="106" y="35" fill="#22292E" width="1" height="7"/>
			<rect x="108" y="35" fill="#22292E" width="1" height="7"/>
			<rect x="118" y="35" fill="#22292E" width="1" height="7"/>
			<rect x="120" y="35" fill="#22292E" width="1" height="7"/>
			<rect x="122" y="35" fill="#22292E" width="1" height="7"/>
			<rect x="124" y="35" fill="#22292E" width="1" height="7"/>
			<rect x="126" y="35" fill="#22292E" width="1" height="7"/>
			<rect x="128" y="35" fill="#22292E" width="1" height="7"/>
			<rect x="130" y="35" fill="#22292E" width="1" height="7"/>
			<rect x="132" y="35" fill="#22292E" width="1" height="7"/>
			<rect x="134" y="35" fill="#22292E" width="1" height="7"/>
			<rect x="136" y="35" fill="#22292E" width="1" height="7"/>
			<rect x="138" y="35" fill="#22292E" width="1" height="7"/>
			<rect x="140" y="35" fill="#22292E" width="1" height="7"/>
			<rect x="142" y="35" fill="#22292E" width="1" height="7"/>
			<rect x="144" y="35" fill="#22292E" width="1" height="7"/>
			<rect x="146" y="35" fill="#22292E" width="1" height="7"/>
			<rect x="148" y="35" fill="#22292E" width="1" height="7"/>
			<rect x="150" y="35" fill="#22292E" width="1" height="7"/>
			<rect x="152" y="35" fill="#22292E" width="1" height="7"/>
			<rect x="154" y="35" fill="#22292E" width="1" height="7"/>
			<rect x="156" y="35" fill="#22292E" width="1" height="7"/>
			<rect x="158" y="35" fill="#22292E" width="1" height="7"/>
			<rect x="160" y="35" fill="#22292E" width="1" height="7"/>
			<rect x="162" y="35" fill="#22292E" width="1" height="7"/>
			<rect x="164" y="35" fill="#22292E" width="1" height="7"/>
			<rect x="166" y="35" fill="#22292E" width="1" height="7"/>
			<rect x="168" y="35" fill="#22292E" width="1" height="7"/>
			<rect x="170" y="35" fill="#22292E" width="1" height="7"/>
			<rect x="172" y="35" fill="#22292E" width="1" height="7"/>
		</g>
		<g>
			<g>
				<circle fill="#3FB6A1" cx="112" cy="114" r="2"/>
				<circle fill="#3FB6A1" cx="119" cy="114" r="2"/>
				<circle fill="#3FB6A1" cx="126" cy="114" r="2"/>
			</g>
			<circle fill="#3FB6A1" cx="112" cy="54" r="2"/>
			<circle fill="#3FB6A1" cx="119" cy="54" r="2"/>
			<circle fill="#3FB6A1" cx="126" cy="54" r="2"/>
			<circle fill="#3FB6A1" cx="112" cy="74" r="2"/>
			<circle fill="#3FB6A1" cx="119" cy="74" r="2"/>
			<circle fill="#3FB6A1" cx="126" cy="74" r="2"/>
			<circle fill="#3FB6A1" cx="112" cy="94" r="2"/>
			<circle fill="#3FB6A1" cx="119" cy="94" r="2"/>
			<circle fill="#3FB6A1" cx="126" cy="94" r="2"/>
		</g>
		<g>
			<rect x="164" y="49" fill="#2A3239" width="2" height="2"/>
			<rect x="168" y="49" fill="#2A3239" width="2" height="2"/>
			<rect x="172" y="49" fill="#2A3239" width="2" height="2"/>
			<rect x="164" y="53" fill="#2A3239" width="2" height="2"/>
			<rect x="168" y="53" fill="#2A3239" width="2" height="2"/>
			<rect x="172" y="53" fill="#2A3239" width="2" height="2"/>
			<rect x="164" y="57" fill="#2A3239" width="2" height="2"/>
			<rect x="168" y="57" fill="#2A3239" width="2" height="2"/>
			<rect x="172" y="57" fill="#2A3239" width="2" height="2"/>
		</g>
		<g>
			<rect x="164" y="69" fill="#2A3239" width="2" height="2"/>
			<rect x="168" y="69" fill="#2A3239" width="2" height="2"/>
			<rect x="172" y="69" fill="#2A3239" width="2" height="2"/>
			<rect x="164" y="73" fill="#2A3239" width="2" height="2"/>
			<rect x="168" y="73" fill="#2A3239" width="2" height="2"/>
			<rect x="172" y="73" fill="#2A3239" width="2" height="2"/>
			<rect x="164" y="77" fill="#2A3239" width="2" height="2"/>
			<rect x="168" y="77" fill="#2A3239" width="2" height="2"/>
			<rect x="172" y="77" fill="#2A3239" width="2" height="2"/>
		</g>
		<g>
			<rect x="164" y="89" fill="#2A3239" width="2" height="2"/>
			<rect x="168" y="89" fill="#2A3239" width="2" height="2"/>
			<rect x="172" y="89" fill="#2A3239" width="2" height="2"/>
			<rect x="164" y="93" fill="#2A3239" width="2" height="2"/>
			<rect x="168" y="93" fill="#2A3239" width="2" height="2"/>
			<rect x="172" y="93" fill="#2A3239" width="2" height="2"/>
			<rect x="164" y="97" fill="#2A3239" width="2" height="2"/>
			<rect x="168" y="97" fill="#2A3239" width="2" height="2"/>
			<rect x="172" y="97" fill="#2A3239" width="2" height="2"/>
		</g>
		<g>
			<rect x="164" y="109" fill="#2A3239" width="2" height="2"/>
			<rect x="168" y="109" fill="#2A3239" width="2" height="2"/>
			<rect x="172" y="109" fill="#2A3239" width="2" height="2"/>
			<rect x="164" y="113" fill="#2A3239" width="2" height="2"/>
			<rect x="168" y="113" fill="#2A3239" width="2" height="2"/>
			<rect x="172" y="113" fill="#2A3239" width="2" height="2"/>
			<rect x="164" y="117" fill="#2A3239" width="2" height="2"/>
			<rect x="168" y="117" fill="#2A3239" width="2" height="2"/>
			<rect x="172" y="117" fill="#2A3239" width="2" height="2"/>
		</g>
		<path opacity="0.1" d="M181.3,28h-41.2v112h41.1c2.1,0,3.8-1.7,3.8-3.8V31.7C185,29.6,183.4,28,181.3,28z"/>
	</g>
	<path fill="#3594E8" d="M142,26c-1.1,0.4-5.8,2.3-9.6,7.1c-3.9,4.8-5.2,7.2-5.2,7.2s-4.7-6.7-3.4-8.9c1.4-2.2-10.2,5.4-11.2,9
		c-1.1,3.6-0.3,5.7-0.3,5.7s-12.7-9.2-3.2-21.2C112.3,20.8,132.2,24.4,142,26z"/>
</g>
<g id="Warstwa_2">
</g>
</svg>
